v 0 0.5 0
v 0 -0.5 0
v 2.0 0.5 0.0
v 2.0 -0.5 0.0
v 1.9903694533443939 0.5 0.1960342806591212
v 1.9903694533443939 -0.5 0.1960342806591212
v 1.9615705608064609 0.5 0.3901806440322565
v 1.9615705608064609 -0.5 0.3901806440322565
v 1.9138806714644176 0.5 0.5805693545089247
v 1.9138806714644176 -0.5 0.5805693545089247
v 1.8477590650225735 0.5 0.7653668647301796
v 1.8477590650225735 -0.5 0.7653668647301796
v 1.76384252869671 0.5 0.9427934736519953
v 1.76384252869671 -0.5 0.9427934736519953
v 1.6629392246050905 0.5 1.1111404660392044
v 1.6629392246050905 -0.5 1.1111404660392044
v 1.546020906725474 0.5 1.268786568327291
v 1.546020906725474 -0.5 1.268786568327291
v 1.4142135623730951 0.5 1.4142135623730951
v 1.4142135623730951 -0.5 1.4142135623730951
v 1.268786568327291 0.5 1.5460209067254738
v 1.268786568327291 -0.5 1.5460209067254738
v 1.1111404660392046 0.5 1.6629392246050905
v 1.1111404660392046 -0.5 1.6629392246050905
v 0.9427934736519956 0.5 1.7638425286967099
v 0.9427934736519956 -0.5 1.7638425286967099
v 0.7653668647301797 0.5 1.8477590650225735
v 0.7653668647301797 -0.5 1.8477590650225735
v 0.5805693545089247 0.5 1.9138806714644179
v 0.5805693545089247 -0.5 1.9138806714644179
v 0.39018064403225666 0.5 1.9615705608064609
v 0.39018064403225666 -0.5 1.9615705608064609
v 0.19603428065912154 0.5 1.9903694533443936
v 0.19603428065912154 -0.5 1.9903694533443936
v 1.2246467991473532e-16 0.5 2.0
v 1.2246467991473532e-16 -0.5 2.0
v -0.1960342806591213 0.5 1.9903694533443939
v -0.1960342806591213 -0.5 1.9903694533443939
v -0.3901806440322564 0.5 1.9615705608064609
v -0.3901806440322564 -0.5 1.9615705608064609
v -0.5805693545089243 0.5 1.9138806714644179
v -0.5805693545089243 -0.5 1.9138806714644179
v -0.7653668647301795 0.5 1.8477590650225735
v -0.7653668647301795 -0.5 1.8477590650225735
v -0.9427934736519954 0.5 1.76384252869671
v -0.9427934736519954 -0.5 1.76384252869671
v -1.111140466039204 0.5 1.6629392246050907
v -1.111140466039204 -0.5 1.6629392246050907
v -1.2687865683272908 0.5 1.5460209067254742
v -1.2687865683272908 -0.5 1.5460209067254742
v -1.414213562373095 0.5 1.4142135623730951
v -1.414213562373095 -0.5 1.4142135623730951
v -1.546020906725474 0.5 1.268786568327291
v -1.546020906725474 -0.5 1.268786568327291
v -1.6629392246050907 0.5 1.1111404660392044
v -1.6629392246050907 -0.5 1.1111404660392044
v -1.7638425286967099 0.5 0.9427934736519956
v -1.7638425286967099 -0.5 0.9427934736519956
v -1.8477590650225735 0.5 0.7653668647301798
v -1.8477590650225735 -0.5 0.7653668647301798
v -1.9138806714644176 0.5 0.5805693545089248
v -1.9138806714644176 -0.5 0.5805693545089248
v -1.9615705608064609 0.5 0.3901806440322572
v -1.9615705608064609 -0.5 0.3901806440322572
v -1.9903694533443936 0.5 0.19603428065912165
v -1.9903694533443936 -0.5 0.19603428065912165
v -2.0 0.5 2.4492935982947064e-16
v -2.0 -0.5 2.4492935982947064e-16
v -1.9903694533443939 0.5 -0.19603428065912118
v -1.9903694533443939 -0.5 -0.19603428065912118
v -1.9615705608064609 0.5 -0.3901806440322567
v -1.9615705608064609 -0.5 -0.3901806440322567
v -1.9138806714644179 0.5 -0.5805693545089242
v -1.9138806714644179 -0.5 -0.5805693545089242
v -1.8477590650225737 0.5 -0.7653668647301793
v -1.8477590650225737 -0.5 -0.7653668647301793
v -1.76384252869671 0.5 -0.9427934736519953
v -1.76384252869671 -0.5 -0.9427934736519953
v -1.662939224605091 0.5 -1.111140466039204
v -1.662939224605091 -0.5 -1.111140466039204
v -1.5460209067254742 0.5 -1.2687865683272905
v -1.5460209067254742 -0.5 -1.2687865683272905
v -1.4142135623730954 0.5 -1.414213562373095
v -1.4142135623730954 -0.5 -1.414213562373095
v -1.2687865683272919 0.5 -1.5460209067254733
v -1.2687865683272919 -0.5 -1.5460209067254733
v -1.1111404660392044 0.5 -1.6629392246050905
v -1.1111404660392044 -0.5 -1.6629392246050905
v -0.9427934736519957 0.5 -1.7638425286967099
v -0.9427934736519957 -0.5 -1.7638425286967099
v -0.7653668647301807 0.5 -1.847759065022573
v -0.7653668647301807 -0.5 -1.847759065022573
v -0.5805693545089249 0.5 -1.9138806714644176
v -0.5805693545089249 -0.5 -1.9138806714644176
v -0.39018064403225733 0.5 -1.9615705608064606
v -0.39018064403225733 -0.5 -1.9615705608064606
v -0.1960342806591209 0.5 -1.9903694533443939
v -0.1960342806591209 -0.5 -1.9903694533443939
v -3.6739403974420594e-16 0.5 -2.0
v -3.6739403974420594e-16 -0.5 -2.0
v 0.19603428065912018 0.5 -1.9903694533443939
v 0.19603428065912018 -0.5 -1.9903694533443939
v 0.3901806440322566 0.5 -1.9615705608064609
v 0.3901806440322566 -0.5 -1.9615705608064609
v 0.5805693545089241 0.5 -1.9138806714644179
v 0.5805693545089241 -0.5 -1.9138806714644179
v 0.76536686473018 0.5 -1.8477590650225733
v 0.76536686473018 -0.5 -1.8477590650225733
v 0.9427934736519952 0.5 -1.76384252869671
v 0.9427934736519952 -0.5 -1.76384252869671
v 1.1111404660392037 0.5 -1.662939224605091
v 1.1111404660392037 -0.5 -1.662939224605091
v 1.2687865683272912 0.5 -1.5460209067254738
v 1.2687865683272912 -0.5 -1.5460209067254738
v 1.4142135623730947 0.5 -1.4142135623730954
v 1.4142135623730947 -0.5 -1.4142135623730954
v 1.546020906725473 0.5 -1.2687865683272919
v 1.546020906725473 -0.5 -1.2687865683272919
v 1.6629392246050905 0.5 -1.1111404660392044
v 1.6629392246050905 -0.5 -1.1111404660392044
v 1.7638425286967097 0.5 -0.9427934736519958
v 1.7638425286967097 -0.5 -0.9427934736519958
v 1.847759065022573 0.5 -0.7653668647301808
v 1.847759065022573 -0.5 -0.7653668647301808
v 1.9138806714644176 0.5 -0.580569354508925
v 1.9138806714644176 -0.5 -0.580569354508925
v 1.9615705608064606 0.5 -0.39018064403225744
v 1.9615705608064606 -0.5 -0.39018064403225744
v 1.9903694533443939 0.5 -0.196034280659121
v 1.9903694533443939 -0.5 -0.196034280659121
v 1.7 0.75 0.0
v 1.4 0.75 0.0
v 1.7 0.25 0.0
v 1.4 0.25 0.0
v 1.6918140353427347 0.75 0.16662913856025302
v 1.3932586173410757 0.75 0.13722399646138483
v 1.6918140353427347 0.25 0.16662913856025302
v 1.3932586173410757 0.25 0.13722399646138483
v 1.6673349766854917 0.75 0.33165354742741804
v 1.3730993925645225 0.75 0.2731264508225795
v 1.6673349766854917 0.25 0.33165354742741804
v 1.3730993925645225 0.25 0.2731264508225795
v 1.626798570744755 0.75 0.49348395133258594
v 1.3397164700250923 0.75 0.40639854815624726
v 1.626798570744755 0.25 0.49348395133258594
v 1.3397164700250923 0.25 0.40639854815624726
v 1.5705952052691874 0.75 0.6505618350206526
v 1.2934313455158013 0.75 0.5357568053111257
v 1.5705952052691874 0.25 0.6505618350206526
v 1.2934313455158013 0.25 0.5357568053111257
v 1.4992661493922035 0.75 0.8013744526041959
v 1.234689770087697 0.75 0.6599554315563967
v 1.4992661493922035 0.25 0.8013744526041959
v 1.234689770087697 0.25 0.6599554315563967
v 1.413498340914327 0.75 0.9444693961333237
v 1.1640574572235634 0.75 0.777798326227443
v 1.413498340914327 0.25 0.9444693961333237
v 1.1640574572235634 0.25 0.777798326227443
v 1.314117770716653 0.75 1.0784685830781973
v 1.0822146347078316 0.75 0.8881505978291037
v 1.314117770716653 0.25 1.0784685830781973
v 1.0822146347078316 0.25 0.8881505978291037
v 1.2020815280171309 0.75 1.2020815280171309
v 0.9899494936611666 0.75 0.9899494936611666
v 1.2020815280171309 0.25 1.2020815280171309
v 0.9899494936611666 0.25 0.9899494936611666
v 1.0784685830781973 0.75 1.3141177707166527
v 0.8881505978291037 0.75 1.0822146347078316
v 1.0784685830781973 0.25 1.3141177707166527
v 0.8881505978291037 0.25 1.0822146347078316
v 0.9444693961333238 0.75 1.413498340914327
v 0.7777983262274432 0.75 1.1640574572235634
v 0.9444693961333238 0.25 1.413498340914327
v 0.7777983262274432 0.25 1.1640574572235634
v 0.8013744526041963 0.75 1.4992661493922033
v 0.6599554315563969 0.75 1.2346897700876969
v 0.8013744526041963 0.25 1.4992661493922033
v 0.6599554315563969 0.25 1.2346897700876969
v 0.6505618350206527 0.75 1.5705952052691874
v 0.5357568053111257 0.75 1.2934313455158013
v 0.6505618350206527 0.25 1.5705952052691874
v 0.5357568053111257 0.25 1.2934313455158013
v 0.49348395133258594 0.75 1.6267985707447552
v 0.40639854815624726 0.75 1.3397164700250925
v 0.49348395133258594 0.25 1.6267985707447552
v 0.40639854815624726 0.25 1.3397164700250925
v 0.33165354742741815 0.75 1.6673349766854917
v 0.27312645082257964 0.75 1.3730993925645225
v 0.33165354742741815 0.25 1.6673349766854917
v 0.27312645082257964 0.25 1.3730993925645225
v 0.1666291385602533 0.75 1.6918140353427344
v 0.13722399646138506 0.75 1.3932586173410755
v 0.1666291385602533 0.25 1.6918140353427344
v 0.13722399646138506 0.25 1.3932586173410755
v 1.0409497792752501e-16 0.75 1.7
v 8.572527594031472e-17 0.75 1.4
v 1.0409497792752501e-16 0.25 1.7
v 8.572527594031472e-17 0.25 1.4
v -0.1666291385602531 0.75 1.6918140353427347
v -0.1372239964613849 0.75 1.3932586173410757
v -0.1666291385602531 0.25 1.6918140353427347
v -0.1372239964613849 0.25 1.3932586173410757
v -0.3316535474274179 0.75 1.6673349766854917
v -0.27312645082257947 0.75 1.3730993925645225
v -0.3316535474274179 0.25 1.6673349766854917
v -0.27312645082257947 0.25 1.3730993925645225
v -0.49348395133258566 0.75 1.6267985707447552
v -0.406398548156247 0.75 1.3397164700250925
v -0.49348395133258566 0.25 1.6267985707447552
v -0.406398548156247 0.25 1.3397164700250925
v -0.6505618350206526 0.75 1.5705952052691874
v -0.5357568053111256 0.75 1.2934313455158013
v -0.6505618350206526 0.25 1.5705952052691874
v -0.5357568053111256 0.25 1.2934313455158013
v -0.801374452604196 0.75 1.4992661493922035
v -0.6599554315563967 0.75 1.234689770087697
v -0.801374452604196 0.25 1.4992661493922035
v -0.6599554315563967 0.25 1.234689770087697
v -0.9444693961333233 0.75 1.4134983409143271
v -0.7777983262274427 0.75 1.1640574572235634
v -0.9444693961333233 0.25 1.4134983409143271
v -0.7777983262274427 0.25 1.1640574572235634
v -1.078468583078197 0.75 1.3141177707166531
v -0.8881505978291034 0.75 1.0822146347078319
v -1.078468583078197 0.25 1.3141177707166531
v -0.8881505978291034 0.25 1.0822146347078319
v -1.2020815280171306 0.75 1.2020815280171309
v -0.9899494936611664 0.75 0.9899494936611666
v -1.2020815280171306 0.25 1.2020815280171309
v -0.9899494936611664 0.25 0.9899494936611666
v -1.314117770716653 0.75 1.0784685830781973
v -1.0822146347078316 0.75 0.8881505978291037
v -1.314117770716653 0.25 1.0784685830781973
v -1.0822146347078316 0.25 0.8881505978291037
v -1.4134983409143271 0.75 0.9444693961333237
v -1.1640574572235634 0.75 0.777798326227443
v -1.4134983409143271 0.25 0.9444693961333237
v -1.1640574572235634 0.25 0.777798326227443
v -1.4992661493922033 0.75 0.8013744526041963
v -1.2346897700876969 0.75 0.6599554315563969
v -1.4992661493922033 0.25 0.8013744526041963
v -1.2346897700876969 0.25 0.6599554315563969
v -1.5705952052691874 0.75 0.6505618350206528
v -1.2934313455158013 0.75 0.5357568053111258
v -1.5705952052691874 0.25 0.6505618350206528
v -1.2934313455158013 0.25 0.5357568053111258
v -1.626798570744755 0.75 0.49348395133258605
v -1.3397164700250923 0.75 0.4063985481562473
v -1.626798570744755 0.25 0.49348395133258605
v -1.3397164700250923 0.25 0.4063985481562473
v -1.6673349766854917 0.75 0.33165354742741865
v -1.3730993925645225 0.75 0.27312645082258
v -1.6673349766854917 0.25 0.33165354742741865
v -1.3730993925645225 0.25 0.27312645082258
v -1.6918140353427344 0.75 0.1666291385602534
v -1.3932586173410755 0.75 0.13722399646138514
v -1.6918140353427344 0.25 0.1666291385602534
v -1.3932586173410755 0.25 0.13722399646138514
v -1.7 0.75 2.0818995585505003e-16
v -1.4 0.75 1.7145055188062944e-16
v -1.7 0.25 2.0818995585505003e-16
v -1.4 0.25 1.7145055188062944e-16
v -1.6918140353427347 0.75 -0.166629138560253
v -1.3932586173410757 0.75 -0.1372239964613848
v -1.6918140353427347 0.25 -0.166629138560253
v -1.3932586173410757 0.25 -0.1372239964613848
v -1.6673349766854917 0.75 -0.3316535474274182
v -1.3730993925645225 0.75 -0.2731264508225797
v -1.6673349766854917 0.25 -0.3316535474274182
v -1.3730993925645225 0.25 -0.2731264508225797
v -1.6267985707447552 0.75 -0.49348395133258555
v -1.3397164700250925 0.75 -0.40639854815624693
v -1.6267985707447552 0.25 -0.49348395133258555
v -1.3397164700250925 0.25 -0.40639854815624693
v -1.5705952052691876 0.75 -0.6505618350206525
v -1.2934313455158015 0.75 -0.5357568053111255
v -1.5705952052691876 0.25 -0.6505618350206525
v -1.2934313455158015 0.25 -0.5357568053111255
v -1.4992661493922035 0.75 -0.8013744526041959
v -1.234689770087697 0.75 -0.6599554315563967
v -1.4992661493922035 0.25 -0.8013744526041959
v -1.234689770087697 0.25 -0.6599554315563967
v -1.4134983409143271 0.75 -0.9444693961333233
v -1.1640574572235636 0.75 -0.7777983262274427
v -1.4134983409143271 0.25 -0.9444693961333233
v -1.1640574572235636 0.25 -0.7777983262274427
v -1.3141177707166531 0.75 -1.0784685830781968
v -1.0822146347078319 0.75 -0.8881505978291033
v -1.3141177707166531 0.25 -1.0784685830781968
v -1.0822146347078319 0.25 -0.8881505978291033
v -1.202081528017131 0.75 -1.2020815280171306
v -0.9899494936611667 0.75 -0.9899494936611664
v -1.202081528017131 0.25 -1.2020815280171306
v -0.9899494936611667 0.25 -0.9899494936611664
v -1.0784685830781982 0.75 -1.3141177707166523
v -0.8881505978291042 0.75 -1.0822146347078312
v -1.0784685830781982 0.25 -1.3141177707166523
v -0.8881505978291042 0.25 -1.0822146347078312
v -0.9444693961333237 0.75 -1.413498340914327
v -0.777798326227443 0.75 -1.1640574572235634
v -0.9444693961333237 0.25 -1.413498340914327
v -0.777798326227443 0.25 -1.1640574572235634
v -0.8013744526041964 0.75 -1.4992661493922033
v -0.659955431556397 0.75 -1.2346897700876969
v -0.8013744526041964 0.25 -1.4992661493922033
v -0.659955431556397 0.25 -1.2346897700876969
v -0.6505618350206536 0.75 -1.570595205269187
v -0.5357568053111265 0.75 -1.293431345515801
v -0.6505618350206536 0.25 -1.570595205269187
v -0.5357568053111265 0.25 -1.293431345515801
v -0.49348395133258616 0.75 -1.626798570744755
v -0.4063985481562474 0.75 -1.3397164700250923
v -0.49348395133258616 0.25 -1.626798570744755
v -0.4063985481562474 0.25 -1.3397164700250923
v -0.3316535474274187 0.75 -1.6673349766854915
v -0.27312645082258014 0.75 -1.3730993925645223
v -0.3316535474274187 0.25 -1.6673349766854915
v -0.27312645082258014 0.25 -1.3730993925645223
v -0.16662913856025277 0.75 -1.6918140353427347
v -0.1372239964613846 0.75 -1.3932586173410757
v -0.16662913856025277 0.25 -1.6918140353427347
v -0.1372239964613846 0.25 -1.3932586173410757
v -3.1228493378257504e-16 0.75 -1.7
v -2.5717582782094415e-16 0.75 -1.4
v -3.1228493378257504e-16 0.25 -1.7
v -2.5717582782094415e-16 0.25 -1.4
v 0.16662913856025216 0.75 -1.6918140353427347
v 0.1372239964613841 0.75 -1.3932586173410757
v 0.16662913856025216 0.25 -1.6918140353427347
v 0.1372239964613841 0.25 -1.3932586173410757
v 0.3316535474274181 0.75 -1.6673349766854917
v 0.2731264508225796 0.75 -1.3730993925645225
v 0.3316535474274181 0.25 -1.6673349766854917
v 0.2731264508225796 0.25 -1.3730993925645225
v 0.4934839513325855 0.75 -1.6267985707447552
v 0.4063985481562469 0.75 -1.3397164700250925
v 0.4934839513325855 0.25 -1.6267985707447552
v 0.4063985481562469 0.25 -1.3397164700250925
v 0.650561835020653 0.75 -1.5705952052691872
v 0.535756805311126 0.75 -1.2934313455158013
v 0.650561835020653 0.25 -1.5705952052691872
v 0.535756805311126 0.25 -1.2934313455158013
v 0.8013744526041959 0.75 -1.4992661493922035
v 0.6599554315563966 0.75 -1.234689770087697
v 0.8013744526041959 0.25 -1.4992661493922035
v 0.6599554315563966 0.25 -1.234689770087697
v 0.9444693961333231 0.75 -1.4134983409143271
v 0.7777983262274425 0.75 -1.1640574572235636
v 0.9444693961333231 0.25 -1.4134983409143271
v 0.7777983262274425 0.25 -1.1640574572235636
v 1.0784685830781975 0.75 -1.3141177707166527
v 0.8881505978291038 0.75 -1.0822146347078316
v 1.0784685830781975 0.25 -1.3141177707166527
v 0.8881505978291038 0.25 -1.0822146347078316
v 1.2020815280171304 0.75 -1.202081528017131
v 0.9899494936611662 0.75 -0.9899494936611667
v 1.2020815280171304 0.25 -1.202081528017131
v 0.9899494936611662 0.25 -0.9899494936611667
v 1.314117770716652 0.75 -1.0784685830781982
v 1.0822146347078312 0.75 -0.8881505978291042
v 1.314117770716652 0.25 -1.0784685830781982
v 1.0822146347078312 0.25 -0.8881505978291042
v 1.413498340914327 0.75 -0.9444693961333237
v 1.1640574572235634 0.75 -0.777798326227443
v 1.413498340914327 0.25 -0.9444693961333237
v 1.1640574572235634 0.25 -0.777798326227443
v 1.4992661493922033 0.75 -0.8013744526041965
v 1.2346897700876966 0.75 -0.659955431556397
v 1.4992661493922033 0.25 -0.8013744526041965
v 1.2346897700876966 0.25 -0.659955431556397
v 1.570595205269187 0.75 -0.6505618350206537
v 1.293431345515801 0.75 -0.5357568053111265
v 1.570595205269187 0.25 -0.6505618350206537
v 1.293431345515801 0.25 -0.5357568053111265
v 1.626798570744755 0.75 -0.4934839513325862
v 1.3397164700250923 0.75 -0.4063985481562475
v 1.626798570744755 0.25 -0.4934839513325862
v 1.3397164700250923 0.25 -0.4063985481562475
v 1.6673349766854915 0.75 -0.3316535474274188
v 1.3730993925645223 0.75 -0.2731264508225802
v 1.6673349766854915 0.25 -0.3316535474274188
v 1.3730993925645223 0.25 -0.2731264508225802
v 1.6918140353427347 0.75 -0.16662913856025285
v 1.3932586173410757 0.75 -0.1372239964613847
v 1.6918140353427347 0.25 -0.16662913856025285
v 1.3932586173410757 0.25 -0.1372239964613847
v 1.2 0.25 0.0
v 0.8 0.25 0.0
v 1.2 -0.25 0.0
v 0.8 -0.25 0.0
v 1.1942216720066363 0.25 0.11762056839547272
v 0.7961477813377575 0.25 0.07841371226364849
v 1.1942216720066363 -0.25 0.11762056839547272
v 0.7961477813377575 -0.25 0.07841371226364849
v 1.1769423364838765 0.25 0.2341083864193539
v 0.7846282243225844 0.25 0.1560722576129026
v 1.1769423364838765 -0.25 0.2341083864193539
v 0.7846282243225844 -0.25 0.1560722576129026
v 1.1483284028786505 0.25 0.3483416127053548
v 0.7655522685857671 0.25 0.23222774180356986
v 1.1483284028786505 -0.25 0.3483416127053548
v 0.7655522685857671 -0.25 0.23222774180356986
v 1.1086554390135441 0.25 0.4592201188381077
v 0.7391036260090295 0.25 0.30614674589207186
v 1.1086554390135441 -0.25 0.4592201188381077
v 0.7391036260090295 -0.25 0.30614674589207186
v 1.058305517218026 0.25 0.5656760841911972
v 0.7055370114786841 0.25 0.37711738946079815
v 1.058305517218026 -0.25 0.5656760841911972
v 0.7055370114786841 -0.25 0.37711738946079815
v 0.9977635347630542 0.25 0.6666842796235226
v 0.6651756898420362 0.25 0.44445618641568174
v 0.9977635347630542 -0.25 0.6666842796235226
v 0.6651756898420362 -0.25 0.44445618641568174
v 0.9276125440352844 0.25 0.7612719409963745
v 0.6184083626901896 0.25 0.5075146273309165
v 0.9276125440352844 -0.25 0.7612719409963745
v 0.6184083626901896 -0.25 0.5075146273309165
v 0.848528137423857 0.25 0.848528137423857
v 0.5656854249492381 0.25 0.5656854249492381
v 0.848528137423857 -0.25 0.848528137423857
v 0.5656854249492381 -0.25 0.5656854249492381
v 0.7612719409963745 0.25 0.9276125440352843
v 0.5075146273309165 0.25 0.6184083626901895
v 0.7612719409963745 -0.25 0.9276125440352843
v 0.5075146273309165 -0.25 0.6184083626901895
v 0.6666842796235227 0.25 0.9977635347630542
v 0.44445618641568185 0.25 0.6651756898420362
v 0.6666842796235227 -0.25 0.9977635347630542
v 0.44445618641568185 -0.25 0.6651756898420362
v 0.5656760841911973 0.25 1.0583055172180258
v 0.37711738946079826 0.25 0.705537011478684
v 0.5656760841911973 -0.25 1.0583055172180258
v 0.37711738946079826 -0.25 0.705537011478684
v 0.45922011883810776 0.25 1.1086554390135441
v 0.3061467458920719 0.25 0.7391036260090295
v 0.45922011883810776 -0.25 1.1086554390135441
v 0.3061467458920719 -0.25 0.7391036260090295
v 0.3483416127053548 0.25 1.1483284028786507
v 0.23222774180356986 0.25 0.7655522685857672
v 0.3483416127053548 -0.25 1.1483284028786507
v 0.23222774180356986 -0.25 0.7655522685857672
v 0.234108386419354 0.25 1.1769423364838765
v 0.15607225761290267 0.25 0.7846282243225844
v 0.234108386419354 -0.25 1.1769423364838765
v 0.15607225761290267 -0.25 0.7846282243225844
v 0.11762056839547291 0.25 1.194221672006636
v 0.07841371226364863 0.25 0.7961477813377575
v 0.11762056839547291 -0.25 1.194221672006636
v 0.07841371226364863 -0.25 0.7961477813377575
v 7.347880794884119e-17 0.25 1.2
v 4.898587196589413e-17 0.25 0.8
v 7.347880794884119e-17 -0.25 1.2
v 4.898587196589413e-17 -0.25 0.8
v -0.11762056839547277 0.25 1.1942216720066363
v -0.07841371226364852 0.25 0.7961477813377575
v -0.11762056839547277 -0.25 1.1942216720066363
v -0.07841371226364852 -0.25 0.7961477813377575
v -0.23410838641935383 0.25 1.1769423364838765
v -0.15607225761290255 0.25 0.7846282243225844
v -0.23410838641935383 -0.25 1.1769423364838765
v -0.15607225761290255 -0.25 0.7846282243225844
v -0.3483416127053546 0.25 1.1483284028786507
v -0.23222774180356975 0.25 0.7655522685857672
v -0.3483416127053546 -0.25 1.1483284028786507
v -0.23222774180356975 -0.25 0.7655522685857672
v -0.45922011883810765 0.25 1.1086554390135441
v -0.3061467458920718 0.25 0.7391036260090295
v -0.45922011883810765 -0.25 1.1086554390135441
v -0.3061467458920718 -0.25 0.7391036260090295
v -0.5656760841911972 0.25 1.058305517218026
v -0.3771173894607982 0.25 0.7055370114786841
v -0.5656760841911972 -0.25 1.058305517218026
v -0.3771173894607982 -0.25 0.7055370114786841
v -0.6666842796235223 0.25 0.9977635347630543
v -0.4444561864156816 0.25 0.6651756898420363
v -0.6666842796235223 -0.25 0.9977635347630543
v -0.4444561864156816 -0.25 0.6651756898420363
v -0.7612719409963744 0.25 0.9276125440352845
v -0.5075146273309163 0.25 0.6184083626901897
v -0.7612719409963744 -0.25 0.9276125440352845
v -0.5075146273309163 -0.25 0.6184083626901897
v -0.8485281374238569 0.25 0.848528137423857
v -0.565685424949238 0.25 0.5656854249492381
v -0.8485281374238569 -0.25 0.848528137423857
v -0.565685424949238 -0.25 0.5656854249492381
v -0.9276125440352844 0.25 0.7612719409963745
v -0.6184083626901896 0.25 0.5075146273309165
v -0.9276125440352844 -0.25 0.7612719409963745
v -0.6184083626901896 -0.25 0.5075146273309165
v -0.9977635347630543 0.25 0.6666842796235226
v -0.6651756898420363 0.25 0.44445618641568174
v -0.9977635347630543 -0.25 0.6666842796235226
v -0.6651756898420363 -0.25 0.44445618641568174
v -1.0583055172180258 0.25 0.5656760841911973
v -0.705537011478684 0.25 0.37711738946079826
v -1.0583055172180258 -0.25 0.5656760841911973
v -0.705537011478684 -0.25 0.37711738946079826
v -1.1086554390135441 0.25 0.45922011883810787
v -0.7391036260090295 0.25 0.3061467458920719
v -1.1086554390135441 -0.25 0.45922011883810787
v -0.7391036260090295 -0.25 0.3061467458920719
v -1.1483284028786505 0.25 0.34834161270535485
v -0.7655522685857671 0.25 0.23222774180356992
v -1.1483284028786505 -0.25 0.34834161270535485
v -0.7655522685857671 -0.25 0.23222774180356992
v -1.1769423364838765 0.25 0.23410838641935433
v -0.7846282243225844 0.25 0.1560722576129029
v -1.1769423364838765 -0.25 0.23410838641935433
v -0.7846282243225844 -0.25 0.1560722576129029
v -1.194221672006636 0.25 0.11762056839547298
v -0.7961477813377575 0.25 0.07841371226364867
v -1.194221672006636 -0.25 0.11762056839547298
v -0.7961477813377575 -0.25 0.07841371226364867
v -1.2 0.25 1.4695761589768238e-16
v -0.8 0.25 9.797174393178826e-17
v -1.2 -0.25 1.4695761589768238e-16
v -0.8 -0.25 9.797174393178826e-17
v -1.1942216720066363 0.25 -0.1176205683954727
v -0.7961477813377575 0.25 -0.07841371226364847
v -1.1942216720066363 -0.25 -0.1176205683954727
v -0.7961477813377575 -0.25 -0.07841371226364847
v -1.1769423364838765 0.25 -0.23410838641935403
v -0.7846282243225844 0.25 -0.1560722576129027
v -1.1769423364838765 -0.25 -0.23410838641935403
v -0.7846282243225844 -0.25 -0.1560722576129027
v -1.1483284028786507 0.25 -0.3483416127053545
v -0.7655522685857672 0.25 -0.2322277418035697
v -1.1483284028786507 -0.25 -0.3483416127053545
v -0.7655522685857672 -0.25 -0.2322277418035697
v -1.1086554390135441 0.25 -0.4592201188381076
v -0.7391036260090296 0.25 -0.30614674589207175
v -1.1086554390135441 -0.25 -0.4592201188381076
v -0.7391036260090296 -0.25 -0.30614674589207175
v -1.058305517218026 0.25 -0.5656760841911972
v -0.7055370114786841 0.25 -0.37711738946079815
v -1.058305517218026 -0.25 -0.5656760841911972
v -0.7055370114786841 -0.25 -0.37711738946079815
v -0.9977635347630545 0.25 -0.6666842796235223
v -0.6651756898420365 0.25 -0.4444561864156816
v -0.9977635347630545 -0.25 -0.6666842796235223
v -0.6651756898420365 -0.25 -0.4444561864156816
v -0.9276125440352845 0.25 -0.7612719409963743
v -0.6184083626901897 0.25 -0.5075146273309162
v -0.9276125440352845 -0.25 -0.7612719409963743
v -0.6184083626901897 -0.25 -0.5075146273309162
v -0.8485281374238572 0.25 -0.8485281374238569
v -0.5656854249492381 0.25 -0.565685424949238
v -0.8485281374238572 -0.25 -0.8485281374238569
v -0.5656854249492381 -0.25 -0.565685424949238
v -0.7612719409963751 0.25 -0.9276125440352839
v -0.5075146273309168 0.25 -0.6184083626901894
v -0.7612719409963751 -0.25 -0.9276125440352839
v -0.5075146273309168 -0.25 -0.6184083626901894
v -0.6666842796235226 0.25 -0.9977635347630542
v -0.44445618641568174 0.25 -0.6651756898420362
v -0.6666842796235226 -0.25 -0.9977635347630542
v -0.44445618641568174 -0.25 -0.6651756898420362
v -0.5656760841911974 0.25 -1.0583055172180258
v -0.3771173894607983 0.25 -0.705537011478684
v -0.5656760841911974 -0.25 -1.0583055172180258
v -0.3771173894607983 -0.25 -0.705537011478684
v -0.45922011883810837 0.25 -1.1086554390135437
v -0.3061467458920723 0.25 -0.7391036260090292
v -0.45922011883810837 -0.25 -1.1086554390135437
v -0.3061467458920723 -0.25 -0.7391036260090292
v -0.3483416127053549 0.25 -1.1483284028786505
v -0.23222774180356998 0.25 -0.7655522685857671
v -0.3483416127053549 -0.25 -1.1483284028786505
v -0.23222774180356998 -0.25 -0.7655522685857671
v -0.2341083864193544 0.25 -1.1769423364838763
v -0.15607225761290294 0.25 -0.7846282243225843
v -0.2341083864193544 -0.25 -1.1769423364838763
v -0.15607225761290294 -0.25 -0.7846282243225843
v -0.11762056839547254 0.25 -1.1942216720066363
v -0.07841371226364836 0.25 -0.7961477813377575
v -0.11762056839547254 -0.25 -1.1942216720066363
v -0.07841371226364836 -0.25 -0.7961477813377575
v -2.2043642384652356e-16 0.25 -1.2
v -1.4695761589768238e-16 0.25 -0.8
v -2.2043642384652356e-16 -0.25 -1.2
v -1.4695761589768238e-16 -0.25 -0.8
v 0.11762056839547211 0.25 -1.1942216720066363
v 0.07841371226364807 0.25 -0.7961477813377575
v 0.11762056839547211 -0.25 -1.1942216720066363
v 0.07841371226364807 -0.25 -0.7961477813377575
v 0.23410838641935394 0.25 -1.1769423364838765
v 0.15607225761290267 0.25 -0.7846282243225844
v 0.23410838641935394 -0.25 -1.1769423364838765
v 0.15607225761290267 -0.25 -0.7846282243225844
v 0.34834161270535446 0.25 -1.1483284028786507
v 0.23222774180356964 0.25 -0.7655522685857672
v 0.34834161270535446 -0.25 -1.1483284028786507
v 0.23222774180356964 -0.25 -0.7655522685857672
v 0.459220118838108 0.25 -1.108655439013544
v 0.306146745892072 0.25 -0.7391036260090293
v 0.459220118838108 -0.25 -1.108655439013544
v 0.306146745892072 -0.25 -0.7391036260090293
v 0.5656760841911971 0.25 -1.058305517218026
v 0.3771173894607981 0.25 -0.7055370114786841
v 0.5656760841911971 -0.25 -1.058305517218026
v 0.3771173894607981 -0.25 -0.7055370114786841
v 0.6666842796235222 0.25 -0.9977635347630545
v 0.4444561864156815 0.25 -0.6651756898420365
v 0.6666842796235222 -0.25 -0.9977635347630545
v 0.4444561864156815 -0.25 -0.6651756898420365
v 0.7612719409963747 0.25 -0.9276125440352843
v 0.5075146273309165 0.25 -0.6184083626901895
v 0.7612719409963747 -0.25 -0.9276125440352843
v 0.5075146273309165 -0.25 -0.6184083626901895
v 0.8485281374238568 0.25 -0.8485281374238572
v 0.5656854249492379 0.25 -0.5656854249492381
v 0.8485281374238568 -0.25 -0.8485281374238572
v 0.5656854249492379 -0.25 -0.5656854249492381
v 0.9276125440352838 0.25 -0.7612719409963751
v 0.6184083626901893 0.25 -0.5075146273309168
v 0.9276125440352838 -0.25 -0.7612719409963751
v 0.6184083626901893 -0.25 -0.5075146273309168
v 0.9977635347630542 0.25 -0.6666842796235226
v 0.6651756898420362 0.25 -0.44445618641568174
v 0.9977635347630542 -0.25 -0.6666842796235226
v 0.6651756898420362 -0.25 -0.44445618641568174
v 1.0583055172180258 0.25 -0.5656760841911975
v 0.7055370114786839 0.25 -0.37711738946079837
v 1.0583055172180258 -0.25 -0.5656760841911975
v 0.7055370114786839 -0.25 -0.37711738946079837
v 1.1086554390135437 0.25 -0.4592201188381084
v 0.7391036260090292 0.25 -0.30614674589207236
v 1.1086554390135437 -0.25 -0.4592201188381084
v 0.7391036260090292 -0.25 -0.30614674589207236
v 1.1483284028786505 0.25 -0.34834161270535496
v 0.7655522685857671 0.25 -0.23222774180357
v 1.1483284028786505 -0.25 -0.34834161270535496
v 0.7655522685857671 -0.25 -0.23222774180357
v 1.1769423364838763 0.25 -0.23410838641935444
v 0.7846282243225843 0.25 -0.156072257612903
v 1.1769423364838763 -0.25 -0.23410838641935444
v 0.7846282243225843 -0.25 -0.156072257612903
v 1.1942216720066363 0.25 -0.11762056839547261
v 0.7961477813377575 0.25 -0.0784137122636484
v 1.1942216720066363 -0.25 -0.11762056839547261
v 0.7961477813377575 -0.25 -0.0784137122636484
v 0.8 0.75 0.0
v 0.5 0.75 0.0
v 0.8 0.25 0.0
v 0.5 0.25 0.0
v 0.7961477813377575 0.75 0.07841371226364849
v 0.49759236333609846 0.75 0.0490085701647803
v 0.7961477813377575 0.25 0.07841371226364849
v 0.49759236333609846 0.25 0.0490085701647803
v 0.7846282243225844 0.75 0.1560722576129026
v 0.4903926402016152 0.75 0.09754516100806412
v 0.7846282243225844 0.25 0.1560722576129026
v 0.4903926402016152 0.25 0.09754516100806412
v 0.7655522685857671 0.75 0.23222774180356986
v 0.4784701678661044 0.75 0.14514233862723117
v 0.7655522685857671 0.25 0.23222774180356986
v 0.4784701678661044 0.25 0.14514233862723117
v 0.7391036260090295 0.75 0.30614674589207186
v 0.46193976625564337 0.75 0.1913417161825449
v 0.7391036260090295 0.25 0.30614674589207186
v 0.46193976625564337 0.25 0.1913417161825449
v 0.7055370114786841 0.75 0.37711738946079815
v 0.4409606321741775 0.75 0.23569836841299882
v 0.7055370114786841 0.25 0.37711738946079815
v 0.4409606321741775 0.25 0.23569836841299882
v 0.6651756898420362 0.75 0.44445618641568174
v 0.4157348061512726 0.75 0.2777851165098011
v 0.6651756898420362 0.25 0.44445618641568174
v 0.4157348061512726 0.25 0.2777851165098011
v 0.6184083626901896 0.75 0.5075146273309165
v 0.3865052266813685 0.75 0.31719664208182274
v 0.6184083626901896 0.25 0.5075146273309165
v 0.3865052266813685 0.25 0.31719664208182274
v 0.5656854249492381 0.75 0.5656854249492381
v 0.3535533905932738 0.75 0.3535533905932738
v 0.5656854249492381 0.25 0.5656854249492381
v 0.3535533905932738 0.25 0.3535533905932738
v 0.5075146273309165 0.75 0.6184083626901895
v 0.31719664208182274 0.75 0.38650522668136844
v 0.5075146273309165 0.25 0.6184083626901895
v 0.31719664208182274 0.25 0.38650522668136844
v 0.44445618641568185 0.75 0.6651756898420362
v 0.27778511650980114 0.75 0.4157348061512726
v 0.44445618641568185 0.25 0.6651756898420362
v 0.27778511650980114 0.25 0.4157348061512726
v 0.37711738946079826 0.75 0.705537011478684
v 0.2356983684129989 0.75 0.44096063217417747
v 0.37711738946079826 0.25 0.705537011478684
v 0.2356983684129989 0.25 0.44096063217417747
v 0.3061467458920719 0.75 0.7391036260090295
v 0.19134171618254492 0.75 0.46193976625564337
v 0.3061467458920719 0.25 0.7391036260090295
v 0.19134171618254492 0.25 0.46193976625564337
v 0.23222774180356986 0.75 0.7655522685857672
v 0.14514233862723117 0.75 0.47847016786610447
v 0.23222774180356986 0.25 0.7655522685857672
v 0.14514233862723117 0.25 0.47847016786610447
v 0.15607225761290267 0.75 0.7846282243225844
v 0.09754516100806417 0.75 0.4903926402016152
v 0.15607225761290267 0.25 0.7846282243225844
v 0.09754516100806417 0.25 0.4903926402016152
v 0.07841371226364863 0.75 0.7961477813377575
v 0.049008570164780385 0.75 0.4975923633360984
v 0.07841371226364863 0.25 0.7961477813377575
v 0.049008570164780385 0.25 0.4975923633360984
v 4.898587196589413e-17 0.75 0.8
v 3.061616997868383e-17 0.75 0.5
v 4.898587196589413e-17 0.25 0.8
v 3.061616997868383e-17 0.25 0.5
v -0.07841371226364852 0.75 0.7961477813377575
v -0.04900857016478032 0.75 0.49759236333609846
v -0.07841371226364852 0.25 0.7961477813377575
v -0.04900857016478032 0.25 0.49759236333609846
v -0.15607225761290255 0.75 0.7846282243225844
v -0.0975451610080641 0.75 0.4903926402016152
v -0.15607225761290255 0.25 0.7846282243225844
v -0.0975451610080641 0.25 0.4903926402016152
v -0.23222774180356975 0.75 0.7655522685857672
v -0.14514233862723108 0.75 0.47847016786610447
v -0.23222774180356975 0.25 0.7655522685857672
v -0.14514233862723108 0.25 0.47847016786610447
v -0.3061467458920718 0.75 0.7391036260090295
v -0.19134171618254486 0.75 0.46193976625564337
v -0.3061467458920718 0.25 0.7391036260090295
v -0.19134171618254486 0.25 0.46193976625564337
v -0.3771173894607982 0.75 0.7055370114786841
v -0.23569836841299885 0.75 0.4409606321741775
v -0.3771173894607982 0.25 0.7055370114786841
v -0.23569836841299885 0.25 0.4409606321741775
v -0.4444561864156816 0.75 0.6651756898420363
v -0.277785116509801 0.75 0.4157348061512727
v -0.4444561864156816 0.25 0.6651756898420363
v -0.277785116509801 0.25 0.4157348061512727
v -0.5075146273309163 0.75 0.6184083626901897
v -0.3171966420818227 0.75 0.38650522668136855
v -0.5075146273309163 0.25 0.6184083626901897
v -0.3171966420818227 0.25 0.38650522668136855
v -0.565685424949238 0.75 0.5656854249492381
v -0.35355339059327373 0.75 0.3535533905932738
v -0.565685424949238 0.25 0.5656854249492381
v -0.35355339059327373 0.25 0.3535533905932738
v -0.6184083626901896 0.75 0.5075146273309165
v -0.3865052266813685 0.75 0.31719664208182274
v -0.6184083626901896 0.25 0.5075146273309165
v -0.3865052266813685 0.25 0.31719664208182274
v -0.6651756898420363 0.75 0.44445618641568174
v -0.4157348061512727 0.75 0.2777851165098011
v -0.6651756898420363 0.25 0.44445618641568174
v -0.4157348061512727 0.25 0.2777851165098011
v -0.705537011478684 0.75 0.37711738946079826
v -0.44096063217417747 0.75 0.2356983684129989
v -0.705537011478684 0.25 0.37711738946079826
v -0.44096063217417747 0.25 0.2356983684129989
v -0.7391036260090295 0.75 0.3061467458920719
v -0.46193976625564337 0.75 0.19134171618254495
v -0.7391036260090295 0.25 0.3061467458920719
v -0.46193976625564337 0.25 0.19134171618254495
v -0.7655522685857671 0.75 0.23222774180356992
v -0.4784701678661044 0.75 0.1451423386272312
v -0.7655522685857671 0.25 0.23222774180356992
v -0.4784701678661044 0.25 0.1451423386272312
v -0.7846282243225844 0.75 0.1560722576129029
v -0.4903926402016152 0.75 0.0975451610080643
v -0.7846282243225844 0.25 0.1560722576129029
v -0.4903926402016152 0.25 0.0975451610080643
v -0.7961477813377575 0.75 0.07841371226364867
v -0.4975923633360984 0.75 0.04900857016478041
v -0.7961477813377575 0.25 0.07841371226364867
v -0.4975923633360984 0.25 0.04900857016478041
v -0.8 0.75 9.797174393178826e-17
v -0.5 0.75 6.123233995736766e-17
v -0.8 0.25 9.797174393178826e-17
v -0.5 0.25 6.123233995736766e-17
v -0.7961477813377575 0.75 -0.07841371226364847
v -0.49759236333609846 0.75 -0.049008570164780295
v -0.7961477813377575 0.25 -0.07841371226364847
v -0.49759236333609846 0.25 -0.049008570164780295
v -0.7846282243225844 0.75 -0.1560722576129027
v -0.4903926402016152 0.75 -0.09754516100806418
v -0.7846282243225844 0.25 -0.1560722576129027
v -0.4903926402016152 0.25 -0.09754516100806418
v -0.7655522685857672 0.75 -0.2322277418035697
v -0.47847016786610447 0.75 -0.14514233862723105
v -0.7655522685857672 0.25 -0.2322277418035697
v -0.47847016786610447 0.25 -0.14514233862723105
v -0.7391036260090296 0.75 -0.30614674589207175
v -0.4619397662556434 0.75 -0.19134171618254484
v -0.7391036260090296 0.25 -0.30614674589207175
v -0.4619397662556434 0.25 -0.19134171618254484
v -0.7055370114786841 0.75 -0.37711738946079815
v -0.4409606321741775 0.75 -0.23569836841299882
v -0.7055370114786841 0.25 -0.37711738946079815
v -0.4409606321741775 0.25 -0.23569836841299882
v -0.6651756898420365 0.75 -0.4444561864156816
v -0.41573480615127273 0.75 -0.277785116509801
v -0.6651756898420365 0.25 -0.4444561864156816
v -0.41573480615127273 0.25 -0.277785116509801
v -0.6184083626901897 0.75 -0.5075146273309162
v -0.38650522668136855 0.75 -0.31719664208182263
v -0.6184083626901897 0.25 -0.5075146273309162
v -0.38650522668136855 0.25 -0.31719664208182263
v -0.5656854249492381 0.75 -0.565685424949238
v -0.35355339059327384 0.75 -0.35355339059327373
v -0.5656854249492381 0.25 -0.565685424949238
v -0.35355339059327384 0.25 -0.35355339059327373
v -0.5075146273309168 0.75 -0.6184083626901894
v -0.31719664208182297 0.75 -0.38650522668136833
v -0.5075146273309168 0.25 -0.6184083626901894
v -0.31719664208182297 0.25 -0.38650522668136833
v -0.44445618641568174 0.75 -0.6651756898420362
v -0.2777851165098011 0.75 -0.4157348061512726
v -0.44445618641568174 0.25 -0.6651756898420362
v -0.2777851165098011 0.25 -0.4157348061512726
v -0.3771173894607983 0.75 -0.705537011478684
v -0.23569836841299893 0.75 -0.44096063217417747
v -0.3771173894607983 0.25 -0.705537011478684
v -0.23569836841299893 0.25 -0.44096063217417747
v -0.3061467458920723 0.75 -0.7391036260090292
v -0.19134171618254517 0.75 -0.46193976625564326
v -0.3061467458920723 0.25 -0.7391036260090292
v -0.19134171618254517 0.25 -0.46193976625564326
v -0.23222774180356998 0.75 -0.7655522685857671
v -0.14514233862723122 0.75 -0.4784701678661044
v -0.23222774180356998 0.25 -0.7655522685857671
v -0.14514233862723122 0.25 -0.4784701678661044
v -0.15607225761290294 0.75 -0.7846282243225843
v -0.09754516100806433 0.75 -0.49039264020161516
v -0.15607225761290294 0.25 -0.7846282243225843
v -0.09754516100806433 0.25 -0.49039264020161516
v -0.07841371226364836 0.75 -0.7961477813377575
v -0.049008570164780225 0.75 -0.49759236333609846
v -0.07841371226364836 0.25 -0.7961477813377575
v -0.049008570164780225 0.25 -0.49759236333609846
v -1.4695761589768238e-16 0.75 -0.8
v -9.184850993605148e-17 0.75 -0.5
v -1.4695761589768238e-16 0.25 -0.8
v -9.184850993605148e-17 0.25 -0.5
v 0.07841371226364807 0.75 -0.7961477813377575
v 0.049008570164780045 0.75 -0.49759236333609846
v 0.07841371226364807 0.25 -0.7961477813377575
v 0.049008570164780045 0.25 -0.49759236333609846
v 0.15607225761290267 0.75 -0.7846282243225844
v 0.09754516100806415 0.75 -0.4903926402016152
v 0.15607225761290267 0.25 -0.7846282243225844
v 0.09754516100806415 0.25 -0.4903926402016152
v 0.23222774180356964 0.75 -0.7655522685857672
v 0.14514233862723103 0.75 -0.47847016786610447
v 0.23222774180356964 0.25 -0.7655522685857672
v 0.14514233862723103 0.25 -0.47847016786610447
v 0.306146745892072 0.75 -0.7391036260090293
v 0.191341716182545 0.75 -0.4619397662556433
v 0.306146745892072 0.25 -0.7391036260090293
v 0.191341716182545 0.25 -0.4619397662556433
v 0.3771173894607981 0.75 -0.7055370114786841
v 0.2356983684129988 0.75 -0.4409606321741775
v 0.3771173894607981 0.25 -0.7055370114786841
v 0.2356983684129988 0.25 -0.4409606321741775
v 0.4444561864156815 0.75 -0.6651756898420365
v 0.2777851165098009 0.75 -0.41573480615127273
v 0.4444561864156815 0.25 -0.6651756898420365
v 0.2777851165098009 0.25 -0.41573480615127273
v 0.5075146273309165 0.75 -0.6184083626901895
v 0.3171966420818228 0.75 -0.38650522668136844
v 0.5075146273309165 0.25 -0.6184083626901895
v 0.3171966420818228 0.25 -0.38650522668136844
v 0.5656854249492379 0.75 -0.5656854249492381
v 0.3535533905932737 0.75 -0.35355339059327384
v 0.5656854249492379 0.25 -0.5656854249492381
v 0.3535533905932737 0.25 -0.35355339059327384
v 0.6184083626901893 0.75 -0.5075146273309168
v 0.3865052266813683 0.75 -0.31719664208182297
v 0.6184083626901893 0.25 -0.5075146273309168
v 0.3865052266813683 0.25 -0.31719664208182297
v 0.6651756898420362 0.75 -0.44445618641568174
v 0.4157348061512726 0.75 -0.2777851165098011
v 0.6651756898420362 0.25 -0.44445618641568174
v 0.4157348061512726 0.25 -0.2777851165098011
v 0.7055370114786839 0.75 -0.37711738946079837
v 0.4409606321741774 0.75 -0.23569836841299896
v 0.7055370114786839 0.25 -0.37711738946079837
v 0.4409606321741774 0.25 -0.23569836841299896
v 0.7391036260090292 0.75 -0.30614674589207236
v 0.46193976625564326 0.75 -0.1913417161825452
v 0.7391036260090292 0.25 -0.30614674589207236
v 0.46193976625564326 0.25 -0.1913417161825452
v 0.7655522685857671 0.75 -0.23222774180357
v 0.4784701678661044 0.75 -0.14514233862723125
v 0.7655522685857671 0.25 -0.23222774180357
v 0.4784701678661044 0.25 -0.14514233862723125
v 0.7846282243225843 0.75 -0.156072257612903
v 0.49039264020161516 0.75 -0.09754516100806436
v 0.7846282243225843 0.25 -0.156072257612903
v 0.49039264020161516 0.25 -0.09754516100806436
v 0.7961477813377575 0.75 -0.0784137122636484
v 0.49759236333609846 0.75 -0.04900857016478025
v 0.7961477813377575 0.25 -0.0784137122636484
v 0.49759236333609846 0.25 -0.04900857016478025
f 1 3 5
f 2 6 4
f 3 4 5
f 5 4 6
f 1 5 7
f 2 8 6
f 5 6 7
f 7 6 8
f 1 7 9
f 2 10 8
f 7 8 9
f 9 8 10
f 1 9 11
f 2 12 10
f 9 10 11
f 11 10 12
f 1 11 13
f 2 14 12
f 11 12 13
f 13 12 14
f 1 13 15
f 2 16 14
f 13 14 15
f 15 14 16
f 1 15 17
f 2 18 16
f 15 16 17
f 17 16 18
f 1 17 19
f 2 20 18
f 17 18 19
f 19 18 20
f 1 19 21
f 2 22 20
f 19 20 21
f 21 20 22
f 1 21 23
f 2 24 22
f 21 22 23
f 23 22 24
f 1 23 25
f 2 26 24
f 23 24 25
f 25 24 26
f 1 25 27
f 2 28 26
f 25 26 27
f 27 26 28
f 1 27 29
f 2 30 28
f 27 28 29
f 29 28 30
f 1 29 31
f 2 32 30
f 29 30 31
f 31 30 32
f 1 31 33
f 2 34 32
f 31 32 33
f 33 32 34
f 1 33 35
f 2 36 34
f 33 34 35
f 35 34 36
f 1 35 37
f 2 38 36
f 35 36 37
f 37 36 38
f 1 37 39
f 2 40 38
f 37 38 39
f 39 38 40
f 1 39 41
f 2 42 40
f 39 40 41
f 41 40 42
f 1 41 43
f 2 44 42
f 41 42 43
f 43 42 44
f 1 43 45
f 2 46 44
f 43 44 45
f 45 44 46
f 1 45 47
f 2 48 46
f 45 46 47
f 47 46 48
f 1 47 49
f 2 50 48
f 47 48 49
f 49 48 50
f 1 49 51
f 2 52 50
f 49 50 51
f 51 50 52
f 1 51 53
f 2 54 52
f 51 52 53
f 53 52 54
f 1 53 55
f 2 56 54
f 53 54 55
f 55 54 56
f 1 55 57
f 2 58 56
f 55 56 57
f 57 56 58
f 1 57 59
f 2 60 58
f 57 58 59
f 59 58 60
f 1 59 61
f 2 62 60
f 59 60 61
f 61 60 62
f 1 61 63
f 2 64 62
f 61 62 63
f 63 62 64
f 1 63 65
f 2 66 64
f 63 64 65
f 65 64 66
f 1 65 67
f 2 68 66
f 65 66 67
f 67 66 68
f 1 67 69
f 2 70 68
f 67 68 69
f 69 68 70
f 1 69 71
f 2 72 70
f 69 70 71
f 71 70 72
f 1 71 73
f 2 74 72
f 71 72 73
f 73 72 74
f 1 73 75
f 2 76 74
f 73 74 75
f 75 74 76
f 1 75 77
f 2 78 76
f 75 76 77
f 77 76 78
f 1 77 79
f 2 80 78
f 77 78 79
f 79 78 80
f 1 79 81
f 2 82 80
f 79 80 81
f 81 80 82
f 1 81 83
f 2 84 82
f 81 82 83
f 83 82 84
f 1 83 85
f 2 86 84
f 83 84 85
f 85 84 86
f 1 85 87
f 2 88 86
f 85 86 87
f 87 86 88
f 1 87 89
f 2 90 88
f 87 88 89
f 89 88 90
f 1 89 91
f 2 92 90
f 89 90 91
f 91 90 92
f 1 91 93
f 2 94 92
f 91 92 93
f 93 92 94
f 1 93 95
f 2 96 94
f 93 94 95
f 95 94 96
f 1 95 97
f 2 98 96
f 95 96 97
f 97 96 98
f 1 97 99
f 2 100 98
f 97 98 99
f 99 98 100
f 1 99 101
f 2 102 100
f 99 100 101
f 101 100 102
f 1 101 103
f 2 104 102
f 101 102 103
f 103 102 104
f 1 103 105
f 2 106 104
f 103 104 105
f 105 104 106
f 1 105 107
f 2 108 106
f 105 106 107
f 107 106 108
f 1 107 109
f 2 110 108
f 107 108 109
f 109 108 110
f 1 109 111
f 2 112 110
f 109 110 111
f 111 110 112
f 1 111 113
f 2 114 112
f 111 112 113
f 113 112 114
f 1 113 115
f 2 116 114
f 113 114 115
f 115 114 116
f 1 115 117
f 2 118 116
f 115 116 117
f 117 116 118
f 1 117 119
f 2 120 118
f 117 118 119
f 119 118 120
f 1 119 121
f 2 122 120
f 119 120 121
f 121 120 122
f 1 121 123
f 2 124 122
f 121 122 123
f 123 122 124
f 1 123 125
f 2 126 124
f 123 124 125
f 125 124 126
f 1 125 127
f 2 128 126
f 125 126 127
f 127 126 128
f 1 127 129
f 2 130 128
f 127 128 129
f 129 128 130
f 1 129 3
f 2 4 130
f 129 130 3
f 3 130 4
f 131 135 132
f 132 135 136
f 133 134 137
f 134 138 137
f 131 133 135
f 135 133 137
f 132 136 134
f 136 138 134
f 135 139 136
f 136 139 140
f 137 138 141
f 138 142 141
f 135 137 139
f 139 137 141
f 136 140 138
f 140 142 138
f 139 143 140
f 140 143 144
f 141 142 145
f 142 146 145
f 139 141 143
f 143 141 145
f 140 144 142
f 144 146 142
f 143 147 144
f 144 147 148
f 145 146 149
f 146 150 149
f 143 145 147
f 147 145 149
f 144 148 146
f 148 150 146
f 147 151 148
f 148 151 152
f 149 150 153
f 150 154 153
f 147 149 151
f 151 149 153
f 148 152 150
f 152 154 150
f 151 155 152
f 152 155 156
f 153 154 157
f 154 158 157
f 151 153 155
f 155 153 157
f 152 156 154
f 156 158 154
f 155 159 156
f 156 159 160
f 157 158 161
f 158 162 161
f 155 157 159
f 159 157 161
f 156 160 158
f 160 162 158
f 159 163 160
f 160 163 164
f 161 162 165
f 162 166 165
f 159 161 163
f 163 161 165
f 160 164 162
f 164 166 162
f 163 167 164
f 164 167 168
f 165 166 169
f 166 170 169
f 163 165 167
f 167 165 169
f 164 168 166
f 168 170 166
f 167 171 168
f 168 171 172
f 169 170 173
f 170 174 173
f 167 169 171
f 171 169 173
f 168 172 170
f 172 174 170
f 171 175 172
f 172 175 176
f 173 174 177
f 174 178 177
f 171 173 175
f 175 173 177
f 172 176 174
f 176 178 174
f 175 179 176
f 176 179 180
f 177 178 181
f 178 182 181
f 175 177 179
f 179 177 181
f 176 180 178
f 180 182 178
f 179 183 180
f 180 183 184
f 181 182 185
f 182 186 185
f 179 181 183
f 183 181 185
f 180 184 182
f 184 186 182
f 183 187 184
f 184 187 188
f 185 186 189
f 186 190 189
f 183 185 187
f 187 185 189
f 184 188 186
f 188 190 186
f 187 191 188
f 188 191 192
f 189 190 193
f 190 194 193
f 187 189 191
f 191 189 193
f 188 192 190
f 192 194 190
f 191 195 192
f 192 195 196
f 193 194 197
f 194 198 197
f 191 193 195
f 195 193 197
f 192 196 194
f 196 198 194
f 195 199 196
f 196 199 200
f 197 198 201
f 198 202 201
f 195 197 199
f 199 197 201
f 196 200 198
f 200 202 198
f 199 203 200
f 200 203 204
f 201 202 205
f 202 206 205
f 199 201 203
f 203 201 205
f 200 204 202
f 204 206 202
f 203 207 204
f 204 207 208
f 205 206 209
f 206 210 209
f 203 205 207
f 207 205 209
f 204 208 206
f 208 210 206
f 207 211 208
f 208 211 212
f 209 210 213
f 210 214 213
f 207 209 211
f 211 209 213
f 208 212 210
f 212 214 210
f 211 215 212
f 212 215 216
f 213 214 217
f 214 218 217
f 211 213 215
f 215 213 217
f 212 216 214
f 216 218 214
f 215 219 216
f 216 219 220
f 217 218 221
f 218 222 221
f 215 217 219
f 219 217 221
f 216 220 218
f 220 222 218
f 219 223 220
f 220 223 224
f 221 222 225
f 222 226 225
f 219 221 223
f 223 221 225
f 220 224 222
f 224 226 222
f 223 227 224
f 224 227 228
f 225 226 229
f 226 230 229
f 223 225 227
f 227 225 229
f 224 228 226
f 228 230 226
f 227 231 228
f 228 231 232
f 229 230 233
f 230 234 233
f 227 229 231
f 231 229 233
f 228 232 230
f 232 234 230
f 231 235 232
f 232 235 236
f 233 234 237
f 234 238 237
f 231 233 235
f 235 233 237
f 232 236 234
f 236 238 234
f 235 239 236
f 236 239 240
f 237 238 241
f 238 242 241
f 235 237 239
f 239 237 241
f 236 240 238
f 240 242 238
f 239 243 240
f 240 243 244
f 241 242 245
f 242 246 245
f 239 241 243
f 243 241 245
f 240 244 242
f 244 246 242
f 243 247 244
f 244 247 248
f 245 246 249
f 246 250 249
f 243 245 247
f 247 245 249
f 244 248 246
f 248 250 246
f 247 251 248
f 248 251 252
f 249 250 253
f 250 254 253
f 247 249 251
f 251 249 253
f 248 252 250
f 252 254 250
f 251 255 252
f 252 255 256
f 253 254 257
f 254 258 257
f 251 253 255
f 255 253 257
f 252 256 254
f 256 258 254
f 255 259 256
f 256 259 260
f 257 258 261
f 258 262 261
f 255 257 259
f 259 257 261
f 256 260 258
f 260 262 258
f 259 263 260
f 260 263 264
f 261 262 265
f 262 266 265
f 259 261 263
f 263 261 265
f 260 264 262
f 264 266 262
f 263 267 264
f 264 267 268
f 265 266 269
f 266 270 269
f 263 265 267
f 267 265 269
f 264 268 266
f 268 270 266
f 267 271 268
f 268 271 272
f 269 270 273
f 270 274 273
f 267 269 271
f 271 269 273
f 268 272 270
f 272 274 270
f 271 275 272
f 272 275 276
f 273 274 277
f 274 278 277
f 271 273 275
f 275 273 277
f 272 276 274
f 276 278 274
f 275 279 276
f 276 279 280
f 277 278 281
f 278 282 281
f 275 277 279
f 279 277 281
f 276 280 278
f 280 282 278
f 279 283 280
f 280 283 284
f 281 282 285
f 282 286 285
f 279 281 283
f 283 281 285
f 280 284 282
f 284 286 282
f 283 287 284
f 284 287 288
f 285 286 289
f 286 290 289
f 283 285 287
f 287 285 289
f 284 288 286
f 288 290 286
f 287 291 288
f 288 291 292
f 289 290 293
f 290 294 293
f 287 289 291
f 291 289 293
f 288 292 290
f 292 294 290
f 291 295 292
f 292 295 296
f 293 294 297
f 294 298 297
f 291 293 295
f 295 293 297
f 292 296 294
f 296 298 294
f 295 299 296
f 296 299 300
f 297 298 301
f 298 302 301
f 295 297 299
f 299 297 301
f 296 300 298
f 300 302 298
f 299 303 300
f 300 303 304
f 301 302 305
f 302 306 305
f 299 301 303
f 303 301 305
f 300 304 302
f 304 306 302
f 303 307 304
f 304 307 308
f 305 306 309
f 306 310 309
f 303 305 307
f 307 305 309
f 304 308 306
f 308 310 306
f 307 311 308
f 308 311 312
f 309 310 313
f 310 314 313
f 307 309 311
f 311 309 313
f 308 312 310
f 312 314 310
f 311 315 312
f 312 315 316
f 313 314 317
f 314 318 317
f 311 313 315
f 315 313 317
f 312 316 314
f 316 318 314
f 315 319 316
f 316 319 320
f 317 318 321
f 318 322 321
f 315 317 319
f 319 317 321
f 316 320 318
f 320 322 318
f 319 323 320
f 320 323 324
f 321 322 325
f 322 326 325
f 319 321 323
f 323 321 325
f 320 324 322
f 324 326 322
f 323 327 324
f 324 327 328
f 325 326 329
f 326 330 329
f 323 325 327
f 327 325 329
f 324 328 326
f 328 330 326
f 327 331 328
f 328 331 332
f 329 330 333
f 330 334 333
f 327 329 331
f 331 329 333
f 328 332 330
f 332 334 330
f 331 335 332
f 332 335 336
f 333 334 337
f 334 338 337
f 331 333 335
f 335 333 337
f 332 336 334
f 336 338 334
f 335 339 336
f 336 339 340
f 337 338 341
f 338 342 341
f 335 337 339
f 339 337 341
f 336 340 338
f 340 342 338
f 339 343 340
f 340 343 344
f 341 342 345
f 342 346 345
f 339 341 343
f 343 341 345
f 340 344 342
f 344 346 342
f 343 347 344
f 344 347 348
f 345 346 349
f 346 350 349
f 343 345 347
f 347 345 349
f 344 348 346
f 348 350 346
f 347 351 348
f 348 351 352
f 349 350 353
f 350 354 353
f 347 349 351
f 351 349 353
f 348 352 350
f 352 354 350
f 351 355 352
f 352 355 356
f 353 354 357
f 354 358 357
f 351 353 355
f 355 353 357
f 352 356 354
f 356 358 354
f 355 359 356
f 356 359 360
f 357 358 361
f 358 362 361
f 355 357 359
f 359 357 361
f 356 360 358
f 360 362 358
f 359 363 360
f 360 363 364
f 361 362 365
f 362 366 365
f 359 361 363
f 363 361 365
f 360 364 362
f 364 366 362
f 363 367 364
f 364 367 368
f 365 366 369
f 366 370 369
f 363 365 367
f 367 365 369
f 364 368 366
f 368 370 366
f 367 371 368
f 368 371 372
f 369 370 373
f 370 374 373
f 367 369 371
f 371 369 373
f 368 372 370
f 372 374 370
f 371 375 372
f 372 375 376
f 373 374 377
f 374 378 377
f 371 373 375
f 375 373 377
f 372 376 374
f 376 378 374
f 375 379 376
f 376 379 380
f 377 378 381
f 378 382 381
f 375 377 379
f 379 377 381
f 376 380 378
f 380 382 378
f 379 383 380
f 380 383 384
f 381 382 385
f 382 386 385
f 379 381 383
f 383 381 385
f 380 384 382
f 384 386 382
f 383 131 384
f 384 131 132
f 385 386 133
f 386 134 133
f 383 385 131
f 131 385 133
f 384 132 386
f 132 134 386
f 387 391 388
f 388 391 392
f 389 390 393
f 390 394 393
f 387 389 391
f 391 389 393
f 388 392 390
f 392 394 390
f 391 395 392
f 392 395 396
f 393 394 397
f 394 398 397
f 391 393 395
f 395 393 397
f 392 396 394
f 396 398 394
f 395 399 396
f 396 399 400
f 397 398 401
f 398 402 401
f 395 397 399
f 399 397 401
f 396 400 398
f 400 402 398
f 399 403 400
f 400 403 404
f 401 402 405
f 402 406 405
f 399 401 403
f 403 401 405
f 400 404 402
f 404 406 402
f 403 407 404
f 404 407 408
f 405 406 409
f 406 410 409
f 403 405 407
f 407 405 409
f 404 408 406
f 408 410 406
f 407 411 408
f 408 411 412
f 409 410 413
f 410 414 413
f 407 409 411
f 411 409 413
f 408 412 410
f 412 414 410
f 411 415 412
f 412 415 416
f 413 414 417
f 414 418 417
f 411 413 415
f 415 413 417
f 412 416 414
f 416 418 414
f 415 419 416
f 416 419 420
f 417 418 421
f 418 422 421
f 415 417 419
f 419 417 421
f 416 420 418
f 420 422 418
f 419 423 420
f 420 423 424
f 421 422 425
f 422 426 425
f 419 421 423
f 423 421 425
f 420 424 422
f 424 426 422
f 423 427 424
f 424 427 428
f 425 426 429
f 426 430 429
f 423 425 427
f 427 425 429
f 424 428 426
f 428 430 426
f 427 431 428
f 428 431 432
f 429 430 433
f 430 434 433
f 427 429 431
f 431 429 433
f 428 432 430
f 432 434 430
f 431 435 432
f 432 435 436
f 433 434 437
f 434 438 437
f 431 433 435
f 435 433 437
f 432 436 434
f 436 438 434
f 435 439 436
f 436 439 440
f 437 438 441
f 438 442 441
f 435 437 439
f 439 437 441
f 436 440 438
f 440 442 438
f 439 443 440
f 440 443 444
f 441 442 445
f 442 446 445
f 439 441 443
f 443 441 445
f 440 444 442
f 444 446 442
f 443 447 444
f 444 447 448
f 445 446 449
f 446 450 449
f 443 445 447
f 447 445 449
f 444 448 446
f 448 450 446
f 447 451 448
f 448 451 452
f 449 450 453
f 450 454 453
f 447 449 451
f 451 449 453
f 448 452 450
f 452 454 450
f 451 455 452
f 452 455 456
f 453 454 457
f 454 458 457
f 451 453 455
f 455 453 457
f 452 456 454
f 456 458 454
f 455 459 456
f 456 459 460
f 457 458 461
f 458 462 461
f 455 457 459
f 459 457 461
f 456 460 458
f 460 462 458
f 459 463 460
f 460 463 464
f 461 462 465
f 462 466 465
f 459 461 463
f 463 461 465
f 460 464 462
f 464 466 462
f 463 467 464
f 464 467 468
f 465 466 469
f 466 470 469
f 463 465 467
f 467 465 469
f 464 468 466
f 468 470 466
f 467 471 468
f 468 471 472
f 469 470 473
f 470 474 473
f 467 469 471
f 471 469 473
f 468 472 470
f 472 474 470
f 471 475 472
f 472 475 476
f 473 474 477
f 474 478 477
f 471 473 475
f 475 473 477
f 472 476 474
f 476 478 474
f 475 479 476
f 476 479 480
f 477 478 481
f 478 482 481
f 475 477 479
f 479 477 481
f 476 480 478
f 480 482 478
f 479 483 480
f 480 483 484
f 481 482 485
f 482 486 485
f 479 481 483
f 483 481 485
f 480 484 482
f 484 486 482
f 483 487 484
f 484 487 488
f 485 486 489
f 486 490 489
f 483 485 487
f 487 485 489
f 484 488 486
f 488 490 486
f 487 491 488
f 488 491 492
f 489 490 493
f 490 494 493
f 487 489 491
f 491 489 493
f 488 492 490
f 492 494 490
f 491 495 492
f 492 495 496
f 493 494 497
f 494 498 497
f 491 493 495
f 495 493 497
f 492 496 494
f 496 498 494
f 495 499 496
f 496 499 500
f 497 498 501
f 498 502 501
f 495 497 499
f 499 497 501
f 496 500 498
f 500 502 498
f 499 503 500
f 500 503 504
f 501 502 505
f 502 506 505
f 499 501 503
f 503 501 505
f 500 504 502
f 504 506 502
f 503 507 504
f 504 507 508
f 505 506 509
f 506 510 509
f 503 505 507
f 507 505 509
f 504 508 506
f 508 510 506
f 507 511 508
f 508 511 512
f 509 510 513
f 510 514 513
f 507 509 511
f 511 509 513
f 508 512 510
f 512 514 510
f 511 515 512
f 512 515 516
f 513 514 517
f 514 518 517
f 511 513 515
f 515 513 517
f 512 516 514
f 516 518 514
f 515 519 516
f 516 519 520
f 517 518 521
f 518 522 521
f 515 517 519
f 519 517 521
f 516 520 518
f 520 522 518
f 519 523 520
f 520 523 524
f 521 522 525
f 522 526 525
f 519 521 523
f 523 521 525
f 520 524 522
f 524 526 522
f 523 527 524
f 524 527 528
f 525 526 529
f 526 530 529
f 523 525 527
f 527 525 529
f 524 528 526
f 528 530 526
f 527 531 528
f 528 531 532
f 529 530 533
f 530 534 533
f 527 529 531
f 531 529 533
f 528 532 530
f 532 534 530
f 531 535 532
f 532 535 536
f 533 534 537
f 534 538 537
f 531 533 535
f 535 533 537
f 532 536 534
f 536 538 534
f 535 539 536
f 536 539 540
f 537 538 541
f 538 542 541
f 535 537 539
f 539 537 541
f 536 540 538
f 540 542 538
f 539 543 540
f 540 543 544
f 541 542 545
f 542 546 545
f 539 541 543
f 543 541 545
f 540 544 542
f 544 546 542
f 543 547 544
f 544 547 548
f 545 546 549
f 546 550 549
f 543 545 547
f 547 545 549
f 544 548 546
f 548 550 546
f 547 551 548
f 548 551 552
f 549 550 553
f 550 554 553
f 547 549 551
f 551 549 553
f 548 552 550
f 552 554 550
f 551 555 552
f 552 555 556
f 553 554 557
f 554 558 557
f 551 553 555
f 555 553 557
f 552 556 554
f 556 558 554
f 555 559 556
f 556 559 560
f 557 558 561
f 558 562 561
f 555 557 559
f 559 557 561
f 556 560 558
f 560 562 558
f 559 563 560
f 560 563 564
f 561 562 565
f 562 566 565
f 559 561 563
f 563 561 565
f 560 564 562
f 564 566 562
f 563 567 564
f 564 567 568
f 565 566 569
f 566 570 569
f 563 565 567
f 567 565 569
f 564 568 566
f 568 570 566
f 567 571 568
f 568 571 572
f 569 570 573
f 570 574 573
f 567 569 571
f 571 569 573
f 568 572 570
f 572 574 570
f 571 575 572
f 572 575 576
f 573 574 577
f 574 578 577
f 571 573 575
f 575 573 577
f 572 576 574
f 576 578 574
f 575 579 576
f 576 579 580
f 577 578 581
f 578 582 581
f 575 577 579
f 579 577 581
f 576 580 578
f 580 582 578
f 579 583 580
f 580 583 584
f 581 582 585
f 582 586 585
f 579 581 583
f 583 581 585
f 580 584 582
f 584 586 582
f 583 587 584
f 584 587 588
f 585 586 589
f 586 590 589
f 583 585 587
f 587 585 589
f 584 588 586
f 588 590 586
f 587 591 588
f 588 591 592
f 589 590 593
f 590 594 593
f 587 589 591
f 591 589 593
f 588 592 590
f 592 594 590
f 591 595 592
f 592 595 596
f 593 594 597
f 594 598 597
f 591 593 595
f 595 593 597
f 592 596 594
f 596 598 594
f 595 599 596
f 596 599 600
f 597 598 601
f 598 602 601
f 595 597 599
f 599 597 601
f 596 600 598
f 600 602 598
f 599 603 600
f 600 603 604
f 601 602 605
f 602 606 605
f 599 601 603
f 603 601 605
f 600 604 602
f 604 606 602
f 603 607 604
f 604 607 608
f 605 606 609
f 606 610 609
f 603 605 607
f 607 605 609
f 604 608 606
f 608 610 606
f 607 611 608
f 608 611 612
f 609 610 613
f 610 614 613
f 607 609 611
f 611 609 613
f 608 612 610
f 612 614 610
f 611 615 612
f 612 615 616
f 613 614 617
f 614 618 617
f 611 613 615
f 615 613 617
f 612 616 614
f 616 618 614
f 615 619 616
f 616 619 620
f 617 618 621
f 618 622 621
f 615 617 619
f 619 617 621
f 616 620 618
f 620 622 618
f 619 623 620
f 620 623 624
f 621 622 625
f 622 626 625
f 619 621 623
f 623 621 625
f 620 624 622
f 624 626 622
f 623 627 624
f 624 627 628
f 625 626 629
f 626 630 629
f 623 625 627
f 627 625 629
f 624 628 626
f 628 630 626
f 627 631 628
f 628 631 632
f 629 630 633
f 630 634 633
f 627 629 631
f 631 629 633
f 628 632 630
f 632 634 630
f 631 635 632
f 632 635 636
f 633 634 637
f 634 638 637
f 631 633 635
f 635 633 637
f 632 636 634
f 636 638 634
f 635 639 636
f 636 639 640
f 637 638 641
f 638 642 641
f 635 637 639
f 639 637 641
f 636 640 638
f 640 642 638
f 639 387 640
f 640 387 388
f 641 642 389
f 642 390 389
f 639 641 387
f 387 641 389
f 640 388 642
f 388 390 642
f 643 647 644
f 644 647 648
f 645 646 649
f 646 650 649
f 643 645 647
f 647 645 649
f 644 648 646
f 648 650 646
f 647 651 648
f 648 651 652
f 649 650 653
f 650 654 653
f 647 649 651
f 651 649 653
f 648 652 650
f 652 654 650
f 651 655 652
f 652 655 656
f 653 654 657
f 654 658 657
f 651 653 655
f 655 653 657
f 652 656 654
f 656 658 654
f 655 659 656
f 656 659 660
f 657 658 661
f 658 662 661
f 655 657 659
f 659 657 661
f 656 660 658
f 660 662 658
f 659 663 660
f 660 663 664
f 661 662 665
f 662 666 665
f 659 661 663
f 663 661 665
f 660 664 662
f 664 666 662
f 663 667 664
f 664 667 668
f 665 666 669
f 666 670 669
f 663 665 667
f 667 665 669
f 664 668 666
f 668 670 666
f 667 671 668
f 668 671 672
f 669 670 673
f 670 674 673
f 667 669 671
f 671 669 673
f 668 672 670
f 672 674 670
f 671 675 672
f 672 675 676
f 673 674 677
f 674 678 677
f 671 673 675
f 675 673 677
f 672 676 674
f 676 678 674
f 675 679 676
f 676 679 680
f 677 678 681
f 678 682 681
f 675 677 679
f 679 677 681
f 676 680 678
f 680 682 678
f 679 683 680
f 680 683 684
f 681 682 685
f 682 686 685
f 679 681 683
f 683 681 685
f 680 684 682
f 684 686 682
f 683 687 684
f 684 687 688
f 685 686 689
f 686 690 689
f 683 685 687
f 687 685 689
f 684 688 686
f 688 690 686
f 687 691 688
f 688 691 692
f 689 690 693
f 690 694 693
f 687 689 691
f 691 689 693
f 688 692 690
f 692 694 690
f 691 695 692
f 692 695 696
f 693 694 697
f 694 698 697
f 691 693 695
f 695 693 697
f 692 696 694
f 696 698 694
f 695 699 696
f 696 699 700
f 697 698 701
f 698 702 701
f 695 697 699
f 699 697 701
f 696 700 698
f 700 702 698
f 699 703 700
f 700 703 704
f 701 702 705
f 702 706 705
f 699 701 703
f 703 701 705
f 700 704 702
f 704 706 702
f 703 707 704
f 704 707 708
f 705 706 709
f 706 710 709
f 703 705 707
f 707 705 709
f 704 708 706
f 708 710 706
f 707 711 708
f 708 711 712
f 709 710 713
f 710 714 713
f 707 709 711
f 711 709 713
f 708 712 710
f 712 714 710
f 711 715 712
f 712 715 716
f 713 714 717
f 714 718 717
f 711 713 715
f 715 713 717
f 712 716 714
f 716 718 714
f 715 719 716
f 716 719 720
f 717 718 721
f 718 722 721
f 715 717 719
f 719 717 721
f 716 720 718
f 720 722 718
f 719 723 720
f 720 723 724
f 721 722 725
f 722 726 725
f 719 721 723
f 723 721 725
f 720 724 722
f 724 726 722
f 723 727 724
f 724 727 728
f 725 726 729
f 726 730 729
f 723 725 727
f 727 725 729
f 724 728 726
f 728 730 726
f 727 731 728
f 728 731 732
f 729 730 733
f 730 734 733
f 727 729 731
f 731 729 733
f 728 732 730
f 732 734 730
f 731 735 732
f 732 735 736
f 733 734 737
f 734 738 737
f 731 733 735
f 735 733 737
f 732 736 734
f 736 738 734
f 735 739 736
f 736 739 740
f 737 738 741
f 738 742 741
f 735 737 739
f 739 737 741
f 736 740 738
f 740 742 738
f 739 743 740
f 740 743 744
f 741 742 745
f 742 746 745
f 739 741 743
f 743 741 745
f 740 744 742
f 744 746 742
f 743 747 744
f 744 747 748
f 745 746 749
f 746 750 749
f 743 745 747
f 747 745 749
f 744 748 746
f 748 750 746
f 747 751 748
f 748 751 752
f 749 750 753
f 750 754 753
f 747 749 751
f 751 749 753
f 748 752 750
f 752 754 750
f 751 755 752
f 752 755 756
f 753 754 757
f 754 758 757
f 751 753 755
f 755 753 757
f 752 756 754
f 756 758 754
f 755 759 756
f 756 759 760
f 757 758 761
f 758 762 761
f 755 757 759
f 759 757 761
f 756 760 758
f 760 762 758
f 759 763 760
f 760 763 764
f 761 762 765
f 762 766 765
f 759 761 763
f 763 761 765
f 760 764 762
f 764 766 762
f 763 767 764
f 764 767 768
f 765 766 769
f 766 770 769
f 763 765 767
f 767 765 769
f 764 768 766
f 768 770 766
f 767 771 768
f 768 771 772
f 769 770 773
f 770 774 773
f 767 769 771
f 771 769 773
f 768 772 770
f 772 774 770
f 771 775 772
f 772 775 776
f 773 774 777
f 774 778 777
f 771 773 775
f 775 773 777
f 772 776 774
f 776 778 774
f 775 779 776
f 776 779 780
f 777 778 781
f 778 782 781
f 775 777 779
f 779 777 781
f 776 780 778
f 780 782 778
f 779 783 780
f 780 783 784
f 781 782 785
f 782 786 785
f 779 781 783
f 783 781 785
f 780 784 782
f 784 786 782
f 783 787 784
f 784 787 788
f 785 786 789
f 786 790 789
f 783 785 787
f 787 785 789
f 784 788 786
f 788 790 786
f 787 791 788
f 788 791 792
f 789 790 793
f 790 794 793
f 787 789 791
f 791 789 793
f 788 792 790
f 792 794 790
f 791 795 792
f 792 795 796
f 793 794 797
f 794 798 797
f 791 793 795
f 795 793 797
f 792 796 794
f 796 798 794
f 795 799 796
f 796 799 800
f 797 798 801
f 798 802 801
f 795 797 799
f 799 797 801
f 796 800 798
f 800 802 798
f 799 803 800
f 800 803 804
f 801 802 805
f 802 806 805
f 799 801 803
f 803 801 805
f 800 804 802
f 804 806 802
f 803 807 804
f 804 807 808
f 805 806 809
f 806 810 809
f 803 805 807
f 807 805 809
f 804 808 806
f 808 810 806
f 807 811 808
f 808 811 812
f 809 810 813
f 810 814 813
f 807 809 811
f 811 809 813
f 808 812 810
f 812 814 810
f 811 815 812
f 812 815 816
f 813 814 817
f 814 818 817
f 811 813 815
f 815 813 817
f 812 816 814
f 816 818 814
f 815 819 816
f 816 819 820
f 817 818 821
f 818 822 821
f 815 817 819
f 819 817 821
f 816 820 818
f 820 822 818
f 819 823 820
f 820 823 824
f 821 822 825
f 822 826 825
f 819 821 823
f 823 821 825
f 820 824 822
f 824 826 822
f 823 827 824
f 824 827 828
f 825 826 829
f 826 830 829
f 823 825 827
f 827 825 829
f 824 828 826
f 828 830 826
f 827 831 828
f 828 831 832
f 829 830 833
f 830 834 833
f 827 829 831
f 831 829 833
f 828 832 830
f 832 834 830
f 831 835 832
f 832 835 836
f 833 834 837
f 834 838 837
f 831 833 835
f 835 833 837
f 832 836 834
f 836 838 834
f 835 839 836
f 836 839 840
f 837 838 841
f 838 842 841
f 835 837 839
f 839 837 841
f 836 840 838
f 840 842 838
f 839 843 840
f 840 843 844
f 841 842 845
f 842 846 845
f 839 841 843
f 843 841 845
f 840 844 842
f 844 846 842
f 843 847 844
f 844 847 848
f 845 846 849
f 846 850 849
f 843 845 847
f 847 845 849
f 844 848 846
f 848 850 846
f 847 851 848
f 848 851 852
f 849 850 853
f 850 854 853
f 847 849 851
f 851 849 853
f 848 852 850
f 852 854 850
f 851 855 852
f 852 855 856
f 853 854 857
f 854 858 857
f 851 853 855
f 855 853 857
f 852 856 854
f 856 858 854
f 855 859 856
f 856 859 860
f 857 858 861
f 858 862 861
f 855 857 859
f 859 857 861
f 856 860 858
f 860 862 858
f 859 863 860
f 860 863 864
f 861 862 865
f 862 866 865
f 859 861 863
f 863 861 865
f 860 864 862
f 864 866 862
f 863 867 864
f 864 867 868
f 865 866 869
f 866 870 869
f 863 865 867
f 867 865 869
f 864 868 866
f 868 870 866
f 867 871 868
f 868 871 872
f 869 870 873
f 870 874 873
f 867 869 871
f 871 869 873
f 868 872 870
f 872 874 870
f 871 875 872
f 872 875 876
f 873 874 877
f 874 878 877
f 871 873 875
f 875 873 877
f 872 876 874
f 876 878 874
f 875 879 876
f 876 879 880
f 877 878 881
f 878 882 881
f 875 877 879
f 879 877 881
f 876 880 878
f 880 882 878
f 879 883 880
f 880 883 884
f 881 882 885
f 882 886 885
f 879 881 883
f 883 881 885
f 880 884 882
f 884 886 882
f 883 887 884
f 884 887 888
f 885 886 889
f 886 890 889
f 883 885 887
f 887 885 889
f 884 888 886
f 888 890 886
f 887 891 888
f 888 891 892
f 889 890 893
f 890 894 893
f 887 889 891
f 891 889 893
f 888 892 890
f 892 894 890
f 891 895 892
f 892 895 896
f 893 894 897
f 894 898 897
f 891 893 895
f 895 893 897
f 892 896 894
f 896 898 894
f 895 643 896
f 896 643 644
f 897 898 645
f 898 646 645
f 895 897 643
f 643 897 645
f 896 644 898
f 644 646 898
